<?xml version="1.0" standalone="no"?>
<!DOCTYPE svg PUBLIC "-//W3C//DTD SVG 20010904//EN"
 "http://www.w3.org/TR/2001/REC-SVG-20010904/DTD/svg10.dtd">
<svg version="1.0" xmlns="http://www.w3.org/2000/svg"
 width="64.000000pt" height="64.000000pt" viewBox="0 0 64.000000 64.000000"
 preserveAspectRatio="xMidYMid meet">

<g transform="translate(0.000000,64.000000) scale(0.100000,-0.100000)"
fill="#000000" stroke="none">
<path d="M100 540 c-19 -19 -20 -33 -20 -220 0 -187 1 -201 20 -220 19 -19 33
-20 220 -20 187 0 201 1 220 20 19 19 20 33 20 220 0 187 -1 201 -20 220 -19
19 -33 20 -220 20 -187 0 -201 -1 -220 -20z m435 -190 l0 -185 -215 0 -215 0
-3 175 c-1 96 0 180 3 187 3 11 50 13 217 11 l213 -3 0 -185z m3 -225 c-4 -23
-37 -33 -49 -13 -7 11 -11 10 -19 -2 -9 -13 -11 -13 -20 0 -9 13 -11 13 -20 0
-9 -13 -11 -13 -20 0 -9 13 -11 13 -20 0 -9 -13 -11 -13 -20 0 -9 13 -11 13
-20 0 -9 -13 -11 -13 -20 0 -9 13 -11 13 -20 0 -9 -13 -11 -13 -20 0 -9 13
-11 13 -20 0 -9 -13 -11 -13 -20 0 -9 13 -11 13 -20 0 -9 -13 -11 -13 -20 0
-9 13 -11 13 -20 0 -9 -13 -11 -13 -20 0 -8 12 -12 13 -19 2 -12 -20 -45 -10
-49 13 -3 19 3 20 218 20 215 0 221 -1 218 -20z"/>
</g>
</svg>
